<?xml version="1.0" encoding="UTF-8"?>
<svg id="_Слой_2" data-name="Слой 2" xmlns="http://www.w3.org/2000/svg" viewBox="0 0 8178.4 1698.83">
  <defs>
    <style>
      .cls-1 {
        fill-rule: evenodd;
      }
    </style>
  </defs>
  <g id="Layer_1" data-name="Layer 1">
    <g>
      <path d="M4413.93,1386.23v60.41h-82v249.11h-75.4v-249.11h-82.02v-60.41h239.42Z"/>
      <path d="M4635.7,1641.07h-115.51l-18.52,54.68h-78.92l111.99-309.52h87.3l111.99,309.52h-79.81l-18.52-54.68ZM4616.31,1582.87l-38.35-113.31-37.92,113.31h76.27Z"/>
      <path d="M4776.36,1386.23h77.16l-49.38,118.16h-50.71l22.93-118.16Z"/>
      <path d="M4964.2,1637.55h98.76v58.2h-174.16v-309.52h75.4v251.32Z"/>
      <path d="M5165.68,1386.23v309.52h-75.4v-309.52h75.4Z"/>
      <path d="M5562.05,1386.23v309.52h-75.4v-185.63l-69.21,185.63h-60.85l-69.66-186.06v186.06h-75.4v-309.52h89.06l86.86,214.28,85.98-214.28h88.62Z"/>
      <path d="M5752.09,1687.82c-17.93-7.35-32.27-18.23-42.99-32.64-10.73-14.39-16.4-31.75-16.97-52.03h80.24c1.17,11.47,5.14,20.21,11.9,26.24,6.76,6.03,15.58,9.04,26.45,9.04s19.99-2.58,26.47-7.72c6.45-5.14,9.69-12.27,9.69-21.38,0-7.65-2.58-13.96-7.72-18.97-5.14-4.99-11.45-9.1-18.96-12.34-7.49-3.23-18.14-6.9-31.96-11.03-20-6.17-36.31-12.34-48.95-18.51-12.63-6.18-23.52-15.28-32.62-27.34-9.11-12.06-13.68-27.78-13.68-47.19,0-28.8,10.44-51.35,31.31-67.68,20.86-16.31,48.06-24.47,81.57-24.47s61.58,8.16,82.45,24.47c20.86,16.32,32.03,39.03,33.51,68.13h-81.57c-.59-10-4.27-17.86-11.03-23.59-6.76-5.73-15.44-8.59-26.02-8.59-9.11,0-16.47,2.42-22.04,7.27-5.59,4.85-8.38,11.83-8.38,20.94,0,10,4.7,17.79,14.11,23.37,9.41,5.59,24.1,11.62,44.09,18.07,19.99,6.77,36.23,13.24,48.72,19.41,12.49,6.17,23.3,15.14,32.41,26.89,9.11,11.76,13.68,26.9,13.68,45.42s-4.49,33.65-13.45,48.06c-8.97,14.39-21.97,25.86-39.03,34.38-17.04,8.54-37.18,12.79-60.4,12.79s-42.92-3.68-60.85-11.01Z"/>
      <path d="M6185.94,1386.23v60.41h-82v249.11h-75.4v-249.11h-82.02v-60.41h239.42Z"/>
      <path d="M6407.71,1641.07h-115.51l-18.52,54.68h-78.92l111.99-309.52h87.3l111.99,309.52h-79.81l-18.52-54.68ZM6388.31,1582.87l-38.35-113.31-37.92,113.31h76.27Z"/>
      <path d="M6808.05,1695.75h-75.4l-126.09-190.91v190.91h-75.4v-309.52h75.4l126.09,191.8v-191.8h75.4v309.52Z"/>
      <path d="M6905.07,1687.82c-17.93-7.35-32.27-18.23-42.99-32.64-10.73-14.39-16.4-31.75-16.97-52.03h80.24c1.17,11.47,5.14,20.21,11.9,26.24s15.58,9.04,26.45,9.04,19.99-2.58,26.47-7.72c6.45-5.14,9.69-12.27,9.69-21.38,0-7.65-2.58-13.96-7.72-18.97-5.14-4.99-11.45-9.1-18.96-12.34-7.49-3.23-18.14-6.9-31.96-11.03-20-6.17-36.31-12.34-48.95-18.51-12.63-6.18-23.52-15.28-32.62-27.34-9.11-12.06-13.68-27.78-13.68-47.19,0-28.8,10.44-51.35,31.31-67.68,20.86-16.31,48.06-24.47,81.57-24.47s61.58,8.16,82.45,24.47c20.86,16.32,32.03,39.03,33.51,68.13h-81.57c-.59-10-4.27-17.86-11.03-23.59-6.76-5.73-15.44-8.59-26.02-8.59-9.11,0-16.47,2.42-22.04,7.27-5.59,4.85-8.38,11.83-8.38,20.94,0,10,4.7,17.79,14.11,23.37,9.41,5.59,24.1,11.62,44.09,18.07,19.99,6.77,36.23,13.24,48.72,19.41,12.49,6.17,23.3,15.14,32.41,26.89,9.11,11.76,13.68,26.9,13.68,45.42s-4.49,33.65-13.45,48.06c-8.97,14.39-21.97,25.86-39.03,34.38-17.04,8.54-37.18,12.79-60.4,12.79s-42.92-3.68-60.85-11.01Z"/>
      <path d="M7191.65,1386.23v309.52h-75.4v-309.52h75.4Z"/>
      <path d="M7502.92,1386.23l-107.13,207.23v102.29h-75.4v-102.29l-107.15-207.23h85.54l59.96,129.63,59.52-129.63h84.65Z"/>
      <path d="M7717.2,1641.07h-115.51l-18.52,54.68h-78.92l111.99-309.52h87.3l111.99,309.52h-79.81l-18.52-54.68ZM7697.8,1582.87l-38.35-113.31-37.92,113.31h76.27Z"/>
      <path d="M7891.81,1687.82c-17.93-7.35-32.27-18.23-42.99-32.64-10.73-14.39-16.4-31.75-16.97-52.03h80.24c1.17,11.47,5.14,20.21,11.9,26.24,6.76,6.03,15.58,9.04,26.45,9.04s19.99-2.58,26.47-7.72c6.45-5.14,9.69-12.27,9.69-21.38,0-7.65-2.58-13.96-7.72-18.97-5.14-4.99-11.45-9.1-18.96-12.34-7.49-3.23-18.14-6.9-31.96-11.03-20-6.17-36.31-12.34-48.95-18.51-12.63-6.18-23.52-15.28-32.62-27.34-9.11-12.06-13.68-27.78-13.68-47.19,0-28.8,10.44-51.35,31.31-67.68,20.86-16.31,48.06-24.47,81.57-24.47s61.58,8.16,82.45,24.47c20.86,16.32,32.03,39.03,33.51,68.13h-81.57c-.59-10-4.27-17.86-11.03-23.59-6.76-5.73-15.44-8.59-26.02-8.59-9.11,0-16.47,2.42-22.04,7.27-5.59,4.85-8.38,11.83-8.38,20.94,0,10,4.7,17.79,14.11,23.37,9.41,5.59,24.1,11.62,44.09,18.07,19.99,6.77,36.23,13.24,48.72,19.41,12.49,6.17,23.3,15.14,32.41,26.89,9.11,11.76,13.68,26.9,13.68,45.42s-4.49,33.65-13.45,48.06c-8.97,14.39-21.97,25.86-39.03,34.38-17.04,8.54-37.18,12.79-60.4,12.79s-42.92-3.68-60.85-11.01Z"/>
      <path d="M8178.4,1386.23v309.52h-75.4v-309.52h75.4Z"/>
    </g>
    <path class="cls-1" d="M4770.72,715.28c-44.69,41.71-105.17,62.57-181.42,62.57h-80.68v-481.53h80.68c76.25,0,136.73,20.86,181.42,62.41,44.69,41.73,67.05,101.07,67.05,178.3s-22.36,136.7-67.05,178.25h0ZM5112.12,259.67c-45.68-81.29-110.97-144.75-195.8-190.36-84.93-45.84-183.74-68.6-296.38-68.6h-449.74v1078.89h449.74c112.64,0,211.45-23.58,296.38-70.92,84.84-47.16,150.13-111.91,195.8-194.19,45.7-82.44,68.53-174.85,68.53-277.47s-22.83-196.01-68.53-277.36Z"/>
    <path class="cls-1" d="M5634.88,662.07l97.57-300.27,97.41,300.27h-194.98ZM5929.03.71h-390.15l-394.8,1078.89h355.22l53.3-163.03h359.54l53.47,163.03h356.63L5929.03.71Z"/>
    <polygon class="cls-1" points="6208.19 .71 6208.19 268.94 6491.64 268.94 6491.64 1079.61 6829.99 1079.61 6829.99 268.94 7116.52 268.94 7116.52 .71 6208.19 .71"/>
    <path class="cls-1" d="M7492.36,662.07l97.57-300.27,97.41,300.27h-194.98ZM8176.9,1079.61v-7.72L7786.51.71h-390.15l-394.8,1078.89h355.15l53.3-163.03h359.61l53.47,163.03h353.81Z"/>
    <path class="cls-1" d="M2938.71,0h-467.45v489.23C2335.97,200.49,2042.46,0,1703.23,0h-467.6v489.53C1100.49,200.49,807.12,0,467.6,0H0v1695.73h467.6c339.38,0,632.89-200.63,768.03-489.67v489.67h467.6c339.23,0,632.74-200.49,768.03-489.09v488.94h467.45c467.45,0,847.94-380.33,847.94-847.79S3406.17,0,2938.71,0ZM980.92,871.16l-144.81,35.48c-87.84,21.63-156.49,90.29-177.98,178.12l-35.62,144.67c-4.18,17.45-28.99,17.45-33.32,0l-35.48-144.67c-21.63-87.83-90.29-156.49-178.13-178.12l-144.66-35.48c-17.45-4.33-17.45-29.14,0-33.32l144.66-35.63c87.84-21.49,156.49-90.14,178.13-177.98l35.48-144.81c4.33-17.45,29.14-17.45,33.32,0l35.62,144.81c21.49,87.83,90.14,156.49,177.98,177.98l144.81,35.63c17.45,4.18,17.45,28.99,0,33.32ZM2073.18,871.16l-27.26,6.77c-87.98,21.49-156.49,90.14-178.13,177.98l-6.63,27.41c-4.33,17.45-29.14,17.45-33.46,0l-6.63-27.41c-21.63-87.83-90.29-156.49-178.13-177.98l-27.26-6.77c-17.45-4.33-17.45-29.14,0-33.32l27.26-6.78c87.84-21.49,156.49-90.14,178.13-177.98l6.63-27.4c4.33-17.46,29.14-17.46,33.46,0l6.63,27.4c21.63,87.83,90.14,156.49,178.13,177.98l27.26,6.78c17.45,4.18,17.45,28.99,0,33.32Z"/>
  </g>
</svg>