<?xml version="1.0" encoding="UTF-8"?>
<svg id="Layer_2" data-name="Layer 2" xmlns="http://www.w3.org/2000/svg" viewBox="0 0 1151.35 515.59">
  <defs>
    <style>
      .cls-1 {
        fill-rule: evenodd;
      }
    </style>
  </defs>
  <g id="Layer_1-2" data-name="Layer 1">
    <path class="cls-1" d="M893.53,0h-142.13v148.75C710.26,60.96,621.02,0,517.88,0h-142.18v148.84C334.61,60.96,245.41,0,142.18,0H0v515.59h142.18c103.19,0,192.43-61,233.52-148.88v148.88h142.18c103.15,0,192.39-60.96,233.52-148.71v148.67h142.13c142.13,0,257.82-115.64,257.82-257.78S1035.66,0,893.53,0ZM298.25,264.88l-44.03,10.83c-26.71,6.53-47.58,27.41-54.12,54.12l-10.83,44.03c-1.27,5.31-8.81,5.31-10.13,0l-10.79-44.03c-6.58-26.71-27.45-47.58-54.16-54.12l-43.99-10.83c-5.31-1.27-5.31-8.81,0-10.13l43.99-10.79c26.71-6.58,47.58-27.45,54.16-54.16l10.79-43.98c1.32-5.31,8.86-5.31,10.13,0l10.83,43.98c6.53,26.71,27.41,47.58,54.12,54.16l44.03,10.79c5.31,1.32,5.31,8.86,0,10.13ZM630.36,264.88l-8.29,2.06c-26.75,6.53-47.58,27.41-54.16,54.12l-2.02,8.33c-1.32,5.31-8.86,5.31-10.17,0l-2.02-8.33c-6.58-26.71-27.45-47.58-54.16-54.12l-8.29-2.06c-5.31-1.27-5.31-8.81,0-10.13l8.29-2.06c26.71-6.54,47.58-27.41,54.16-54.12l2.02-8.29c1.32-5.31,8.86-5.31,10.17,0l2.02,8.29c6.58,26.71,27.41,47.58,54.16,54.12l8.29,2.06c5.31,1.32,5.31,8.86,0,10.13Z"/>
  </g>
</svg>