<?xml version="1.0" encoding="UTF-8"?>
<svg id="Layer_2" data-name="Layer 2" xmlns="http://www.w3.org/2000/svg" viewBox="0 0 33.54 33.54">
  <defs>
    <style>
      .cls-1 {
        fill: #fff;
      }
    </style>
  </defs>
  <g id="Layer_1-2" data-name="Layer 1">
    <path class="cls-1" d="M17.93.91l.46,1.89c1.5,6.09,6.25,10.85,12.35,12.35l1.89.46c1.21.3,1.21,2.02,0,2.31l-1.89.46c-6.09,1.5-10.85,6.25-12.35,12.35l-.46,1.89c-.3,1.21-2.02,1.21-2.31,0l-.46-1.89c-1.5-6.09-6.25-10.85-12.35-12.35l-1.89-.46c-1.21-.3-1.21-2.02,0-2.31l1.89-.46c6.09-1.5,10.85-6.25,12.35-12.35l.46-1.89c.3-1.21,2.02-1.21,2.31,0Z"/>
  </g>
</svg>