<?xml version="1.0" encoding="UTF-8"?>
<svg id="Layer_2" data-name="Layer 2" xmlns="http://www.w3.org/2000/svg" viewBox="0 0 53.82 53.82">
  <defs>
    <style>
      .cls-1 {
        fill: #fff;
      }
    </style>
  </defs>
  <g id="Layer_1-2" data-name="Layer 1">
    <path class="cls-1" d="M28.06.91l2.46,10.03c1.5,6.09,6.25,10.85,12.35,12.35l10.03,2.46c1.21.3,1.21,2.02,0,2.31l-10.03,2.46c-6.09,1.5-10.85,6.25-12.35,12.35l-2.46,10.03c-.3,1.21-2.02,1.21-2.31,0l-2.46-10.03c-1.5-6.09-6.25-10.85-12.35-12.35L.91,28.06c-1.21-.3-1.21-2.02,0-2.31l10.03-2.46c6.09-1.5,10.85-6.25,12.35-12.35L25.75.91c.3-1.21,2.02-1.21,2.31,0Z"/>
  </g>
</svg>